<svg width="60" height="60" viewBox="0 0 60 60" fill="none" xmlns="http://www.w3.org/2000/svg">
<rect width="60" height="60" fill="#9BD5A2"/>
<path d="M31.0868 29.8967C31.9236 30.6638 31.9236 31.9076 31.0868 32.6747C30.25 33.4418 28.8932 33.4418 28.0563 32.6747C27.2195 31.9076 27.2195 30.6638 28.0563 29.8967C28.8932 29.1296 30.25 29.1296 31.0868 29.8967Z" fill="white"/>
<path d="M35.9999 25.3929H34.5193L33.4474 23.25H25.6944L24.6235 25.3939L23.145 25.3965C21.9663 25.3987 21.0068 26.3592 21.0058 27.5384L21 36.1066C21 37.2884 21.9611 38.25 23.1429 38.25H35.9999C37.1818 38.25 38.1429 37.289 38.1429 36.1071V27.5357C38.1428 26.3539 37.1818 25.3929 35.9999 25.3929ZM29.5711 35.5714C27.208 35.5714 25.2853 33.6488 25.2853 31.2857C25.2853 28.9226 27.208 27 29.5711 27C31.9343 27 33.857 28.9226 33.857 31.2857C33.857 33.6488 31.9343 35.5714 29.5711 35.5714Z" fill="white"/>
</svg>
